<mxfile host="app.diagrams.net" agent="Mozilla/5.0 (Windows NT 10.0; Win64; x64) AppleWebKit/537.36 (KHTML, like Gecko) Chrome/135.0.0.0 Safari/537.36" version="26.2.14">
  <diagram name="Page-1" id="i5E5-8HXzScHlJfWIOt1">
    <mxGraphModel dx="2372" dy="1250" grid="1" gridSize="10" guides="1" tooltips="1" connect="1" arrows="1" fold="1" page="1" pageScale="1" pageWidth="400" pageHeight="400" math="0" shadow="0">
      <root>
        <mxCell id="0" />
        <mxCell id="1" parent="0" />
        <mxCell id="tqXzGDMAnHT13MNCIwR6-13" style="rounded=0;orthogonalLoop=1;jettySize=auto;html=1;exitX=1;exitY=0.5;exitDx=0;exitDy=0;entryX=0;entryY=0.5;entryDx=0;entryDy=0;endArrow=none;endFill=0;endSize=15;startSize=15;startArrow=diamondThin;startFill=0;" edge="1" parent="1" source="f3z_6o91vCbomhV0sqtX-1" target="2sqMpwf60o3uSlJGsnfw-2">
          <mxGeometry relative="1" as="geometry" />
        </mxCell>
        <mxCell id="f3z_6o91vCbomhV0sqtX-1" value="Course" style="swimlane;fontStyle=1;align=center;verticalAlign=top;childLayout=stackLayout;horizontal=1;startSize=26;horizontalStack=0;resizeParent=1;resizeParentMax=0;resizeLast=0;collapsible=1;marginBottom=0;whiteSpace=wrap;html=1;" parent="1" vertex="1">
          <mxGeometry x="-580" y="77" width="160" height="120" as="geometry">
            <mxRectangle x="-390" y="40" width="80" height="30" as="alternateBounds" />
          </mxGeometry>
        </mxCell>
        <mxCell id="f3z_6o91vCbomhV0sqtX-2" value="&lt;div&gt;- code : String&lt;/div&gt;- tasks : Task[ ]" style="text;strokeColor=none;fillColor=none;align=left;verticalAlign=top;spacingLeft=4;spacingRight=4;overflow=hidden;rotatable=0;points=[[0,0.5],[1,0.5]];portConstraint=eastwest;whiteSpace=wrap;html=1;" parent="f3z_6o91vCbomhV0sqtX-1" vertex="1">
          <mxGeometry y="26" width="160" height="34" as="geometry" />
        </mxCell>
        <mxCell id="f3z_6o91vCbomhV0sqtX-3" value="" style="line;strokeWidth=1;fillColor=none;align=left;verticalAlign=middle;spacingTop=-1;spacingLeft=3;spacingRight=3;rotatable=0;labelPosition=right;points=[];portConstraint=eastwest;strokeColor=inherit;" parent="f3z_6o91vCbomhV0sqtX-1" vertex="1">
          <mxGeometry y="60" width="160" height="8" as="geometry" />
        </mxCell>
        <mxCell id="f3z_6o91vCbomhV0sqtX-4" value="&lt;div&gt;&lt;span style=&quot;background-color: transparent; color: light-dark(rgb(0, 0, 0), rgb(255, 255, 255));&quot;&gt;+ getCode() : String&lt;/span&gt;&lt;/div&gt;&lt;div&gt;&lt;div&gt;+ getTasks() : Task[ ]&lt;/div&gt;&lt;/div&gt;&lt;div&gt;+ addTask() : void&lt;/div&gt;" style="text;strokeColor=none;fillColor=none;align=left;verticalAlign=top;spacingLeft=4;spacingRight=4;overflow=hidden;rotatable=0;points=[[0,0.5],[1,0.5]];portConstraint=eastwest;whiteSpace=wrap;html=1;" parent="f3z_6o91vCbomhV0sqtX-1" vertex="1">
          <mxGeometry y="68" width="160" height="52" as="geometry" />
        </mxCell>
        <mxCell id="tqXzGDMAnHT13MNCIwR6-7" style="edgeStyle=orthogonalEdgeStyle;rounded=0;orthogonalLoop=1;jettySize=auto;html=1;exitX=0.5;exitY=0;exitDx=0;exitDy=0;entryX=0.5;entryY=1;entryDx=0;entryDy=0;" edge="1" parent="1" source="2sqMpwf60o3uSlJGsnfw-1" target="tqXzGDMAnHT13MNCIwR6-1">
          <mxGeometry relative="1" as="geometry">
            <mxPoint x="-420" y="17" as="targetPoint" />
          </mxGeometry>
        </mxCell>
        <mxCell id="2sqMpwf60o3uSlJGsnfw-1" value="Task" style="swimlane;fontStyle=1;align=center;verticalAlign=top;childLayout=stackLayout;horizontal=1;startSize=26;horizontalStack=0;resizeParent=1;resizeParentMax=0;resizeLast=0;collapsible=1;marginBottom=0;whiteSpace=wrap;html=1;" parent="1" vertex="1">
          <mxGeometry x="-320" y="74" width="210" height="250" as="geometry">
            <mxRectangle x="-140" y="40" width="70" height="30" as="alternateBounds" />
          </mxGeometry>
        </mxCell>
        <mxCell id="2sqMpwf60o3uSlJGsnfw-2" value="&lt;div&gt;- name : String&lt;/div&gt;&lt;div&gt;- dueDate : LocalDateTime&lt;/div&gt;- priority : Priority&lt;div&gt;- isCompleted: boolean&lt;/div&gt;" style="text;strokeColor=none;fillColor=none;align=left;verticalAlign=top;spacingLeft=4;spacingRight=4;overflow=hidden;rotatable=0;points=[[0,0.5],[1,0.5]];portConstraint=eastwest;whiteSpace=wrap;html=1;" parent="2sqMpwf60o3uSlJGsnfw-1" vertex="1">
          <mxGeometry y="26" width="210" height="74" as="geometry" />
        </mxCell>
        <mxCell id="2sqMpwf60o3uSlJGsnfw-3" value="" style="line;strokeWidth=1;fillColor=none;align=left;verticalAlign=middle;spacingTop=-1;spacingLeft=3;spacingRight=3;rotatable=0;labelPosition=right;points=[];portConstraint=eastwest;strokeColor=inherit;" parent="2sqMpwf60o3uSlJGsnfw-1" vertex="1">
          <mxGeometry y="100" width="210" height="8" as="geometry" />
        </mxCell>
        <mxCell id="2sqMpwf60o3uSlJGsnfw-4" value="&lt;div&gt;+ getName() : String&lt;/div&gt;&lt;div&gt;+ getDueDate() : LocalDateTime&lt;/div&gt;&lt;div&gt;+ getPriority() : Priority&lt;br&gt;&lt;div&gt;+ isCompleted() : boolean&lt;/div&gt;&lt;/div&gt;&lt;div&gt;&lt;div&gt;+ setDueDate(LocalDateTime) : void&lt;/div&gt;&lt;/div&gt;&lt;div&gt;+ setPriority(Priority) : void&lt;/div&gt;&lt;div&gt;+ markComplete() : void&lt;/div&gt;&lt;div&gt;+ markIncomplete() : void&lt;/div&gt;&lt;div&gt;&lt;i&gt;+ getSummary() : String&lt;/i&gt;&lt;/div&gt;" style="text;strokeColor=none;fillColor=none;align=left;verticalAlign=top;spacingLeft=4;spacingRight=4;overflow=hidden;rotatable=0;points=[[0,0.5],[1,0.5]];portConstraint=eastwest;whiteSpace=wrap;html=1;" parent="2sqMpwf60o3uSlJGsnfw-1" vertex="1">
          <mxGeometry y="108" width="210" height="142" as="geometry" />
        </mxCell>
        <mxCell id="2sqMpwf60o3uSlJGsnfw-5" value="Homework" style="swimlane;fontStyle=1;align=center;verticalAlign=top;childLayout=stackLayout;horizontal=1;startSize=26;horizontalStack=0;resizeParent=1;resizeParentMax=0;resizeLast=0;collapsible=1;marginBottom=0;whiteSpace=wrap;html=1;" parent="1" vertex="1">
          <mxGeometry x="-10" y="-108" width="180" height="160" as="geometry" />
        </mxCell>
        <mxCell id="2sqMpwf60o3uSlJGsnfw-6" value="- problemCount : int&lt;div&gt;- problemsSolved : int&amp;nbsp;&lt;/div&gt;" style="text;strokeColor=none;fillColor=none;align=left;verticalAlign=top;spacingLeft=4;spacingRight=4;overflow=hidden;rotatable=0;points=[[0,0.5],[1,0.5]];portConstraint=eastwest;whiteSpace=wrap;html=1;" parent="2sqMpwf60o3uSlJGsnfw-5" vertex="1">
          <mxGeometry y="26" width="180" height="44" as="geometry" />
        </mxCell>
        <mxCell id="2sqMpwf60o3uSlJGsnfw-7" value="" style="line;strokeWidth=1;fillColor=none;align=left;verticalAlign=middle;spacingTop=-1;spacingLeft=3;spacingRight=3;rotatable=0;labelPosition=right;points=[];portConstraint=eastwest;strokeColor=inherit;" parent="2sqMpwf60o3uSlJGsnfw-5" vertex="1">
          <mxGeometry y="70" width="180" height="8" as="geometry" />
        </mxCell>
        <mxCell id="2sqMpwf60o3uSlJGsnfw-8" value="&lt;div&gt;+ getProblemCount() : int&lt;/div&gt;&lt;div&gt;+ getProblemsSolved() : int&lt;/div&gt;&lt;div&gt;+ getCompletionRatio() : double&lt;/div&gt;&lt;div&gt;+ markSolved(int) : void&lt;/div&gt;&lt;div&gt;+ getSummary() : void&lt;/div&gt;" style="text;strokeColor=none;fillColor=none;align=left;verticalAlign=top;spacingLeft=4;spacingRight=4;overflow=hidden;rotatable=0;points=[[0,0.5],[1,0.5]];portConstraint=eastwest;whiteSpace=wrap;html=1;" parent="2sqMpwf60o3uSlJGsnfw-5" vertex="1">
          <mxGeometry y="78" width="180" height="82" as="geometry" />
        </mxCell>
        <mxCell id="tqXzGDMAnHT13MNCIwR6-21" style="edgeStyle=elbowEdgeStyle;rounded=0;orthogonalLoop=1;jettySize=auto;html=1;exitX=0;exitY=0.25;exitDx=0;exitDy=0;endArrow=block;endFill=0;endSize=12;startSize=12;" edge="1" parent="1" source="2sqMpwf60o3uSlJGsnfw-10">
          <mxGeometry relative="1" as="geometry">
            <mxPoint x="-110" y="137" as="targetPoint" />
          </mxGeometry>
        </mxCell>
        <mxCell id="2sqMpwf60o3uSlJGsnfw-10" value="Project" style="swimlane;fontStyle=1;align=center;verticalAlign=top;childLayout=stackLayout;horizontal=1;startSize=26;horizontalStack=0;resizeParent=1;resizeParentMax=0;resizeLast=0;collapsible=1;marginBottom=0;whiteSpace=wrap;html=1;" parent="1" vertex="1">
          <mxGeometry x="-10" y="102" width="220" height="140" as="geometry">
            <mxRectangle x="180" y="92" width="80" height="30" as="alternateBounds" />
          </mxGeometry>
        </mxCell>
        <mxCell id="2sqMpwf60o3uSlJGsnfw-11" value="- groupMembers : String[ ]" style="text;strokeColor=none;fillColor=none;align=left;verticalAlign=top;spacingLeft=4;spacingRight=4;overflow=hidden;rotatable=0;points=[[0,0.5],[1,0.5]];portConstraint=eastwest;whiteSpace=wrap;html=1;" parent="2sqMpwf60o3uSlJGsnfw-10" vertex="1">
          <mxGeometry y="26" width="220" height="34" as="geometry" />
        </mxCell>
        <mxCell id="2sqMpwf60o3uSlJGsnfw-12" value="" style="line;strokeWidth=1;fillColor=none;align=left;verticalAlign=middle;spacingTop=-1;spacingLeft=3;spacingRight=3;rotatable=0;labelPosition=right;points=[];portConstraint=eastwest;strokeColor=inherit;" parent="2sqMpwf60o3uSlJGsnfw-10" vertex="1">
          <mxGeometry y="60" width="220" height="8" as="geometry" />
        </mxCell>
        <mxCell id="2sqMpwf60o3uSlJGsnfw-13" value="&lt;div&gt;+ getMembers() : String[ ]&lt;/div&gt;&lt;div&gt;&lt;span style=&quot;background-color: transparent; color: light-dark(rgb(0, 0, 0), rgb(255, 255, 255));&quot;&gt;+ addMember(String) : void&lt;/span&gt;&lt;/div&gt;&lt;div&gt;+ removeMember(String) : void&lt;/div&gt;&lt;div&gt;+ getSummary() : void&lt;/div&gt;" style="text;strokeColor=none;fillColor=none;align=left;verticalAlign=top;spacingLeft=4;spacingRight=4;overflow=hidden;rotatable=0;points=[[0,0.5],[1,0.5]];portConstraint=eastwest;whiteSpace=wrap;html=1;" parent="2sqMpwf60o3uSlJGsnfw-10" vertex="1">
          <mxGeometry y="68" width="220" height="72" as="geometry" />
        </mxCell>
        <mxCell id="2sqMpwf60o3uSlJGsnfw-14" value="Test" style="swimlane;fontStyle=1;align=center;verticalAlign=top;childLayout=stackLayout;horizontal=1;startSize=26;horizontalStack=0;resizeParent=1;resizeParentMax=0;resizeLast=0;collapsible=1;marginBottom=0;whiteSpace=wrap;html=1;" parent="1" vertex="1">
          <mxGeometry x="-10" y="292" width="220" height="140" as="geometry" />
        </mxCell>
        <mxCell id="2sqMpwf60o3uSlJGsnfw-15" value="- lessonsCovered : String[ ]" style="text;strokeColor=none;fillColor=none;align=left;verticalAlign=top;spacingLeft=4;spacingRight=4;overflow=hidden;rotatable=0;points=[[0,0.5],[1,0.5]];portConstraint=eastwest;whiteSpace=wrap;html=1;" parent="2sqMpwf60o3uSlJGsnfw-14" vertex="1">
          <mxGeometry y="26" width="220" height="26" as="geometry" />
        </mxCell>
        <mxCell id="2sqMpwf60o3uSlJGsnfw-16" value="" style="line;strokeWidth=1;fillColor=none;align=left;verticalAlign=middle;spacingTop=-1;spacingLeft=3;spacingRight=3;rotatable=0;labelPosition=right;points=[];portConstraint=eastwest;strokeColor=inherit;" parent="2sqMpwf60o3uSlJGsnfw-14" vertex="1">
          <mxGeometry y="52" width="220" height="8" as="geometry" />
        </mxCell>
        <mxCell id="LzTHK_fe2vo6rBPdGbPL-10" value="+ getLessons : String[ ]&lt;div&gt;+ addLesson(String) : void&lt;/div&gt;&lt;div&gt;+ removeLesson(String) : void&lt;/div&gt;&lt;div&gt;+ isComprehensive(String[ ]) : boolean&lt;/div&gt;&lt;div&gt;+ getSummary() : String&lt;/div&gt;" style="text;strokeColor=none;fillColor=none;align=left;verticalAlign=top;spacingLeft=4;spacingRight=4;overflow=hidden;rotatable=0;points=[[0,0.5],[1,0.5]];portConstraint=eastwest;whiteSpace=wrap;html=1;" parent="2sqMpwf60o3uSlJGsnfw-14" vertex="1">
          <mxGeometry y="60" width="220" height="80" as="geometry" />
        </mxCell>
        <mxCell id="tqXzGDMAnHT13MNCIwR6-11" style="edgeStyle=orthogonalEdgeStyle;rounded=0;orthogonalLoop=1;jettySize=auto;html=1;exitX=0.5;exitY=0;exitDx=0;exitDy=0;entryX=0.5;entryY=1;entryDx=0;entryDy=0;startArrow=diamondThin;startFill=0;endArrow=none;endSize=15;startSize=15;" edge="1" parent="1" source="LzTHK_fe2vo6rBPdGbPL-1" target="f3z_6o91vCbomhV0sqtX-1">
          <mxGeometry relative="1" as="geometry">
            <mxPoint x="-530" y="177" as="targetPoint" />
          </mxGeometry>
        </mxCell>
        <mxCell id="LzTHK_fe2vo6rBPdGbPL-1" value="&lt;p style=&quot;margin:0px;margin-top:4px;text-align:center;&quot;&gt;&lt;b&gt;Manager&lt;/b&gt;&lt;/p&gt;&lt;hr size=&quot;1&quot; style=&quot;border-style:solid;&quot;&gt;&lt;p style=&quot;margin:0px;margin-left:4px;&quot;&gt;- courses : Course[ ]&lt;/p&gt;&lt;hr size=&quot;1&quot; style=&quot;border-style:solid;&quot;&gt;&lt;p style=&quot;margin:0px;margin-left:4px;&quot;&gt;+ filterTasks(String) : Tasks[ ]&lt;/p&gt;" style="verticalAlign=top;align=left;overflow=fill;html=1;whiteSpace=wrap;" parent="1" vertex="1">
          <mxGeometry x="-610" y="247" width="220" height="83" as="geometry" />
        </mxCell>
        <mxCell id="tqXzGDMAnHT13MNCIwR6-12" style="edgeStyle=orthogonalEdgeStyle;rounded=0;orthogonalLoop=1;jettySize=auto;html=1;exitX=0.5;exitY=0;exitDx=0;exitDy=0;entryX=0.5;entryY=1;entryDx=0;entryDy=0;startArrow=diamondThin;startFill=0;endArrow=none;endSize=15;startSize=15;" edge="1" parent="1" source="LzTHK_fe2vo6rBPdGbPL-2" target="LzTHK_fe2vo6rBPdGbPL-1">
          <mxGeometry relative="1" as="geometry" />
        </mxCell>
        <mxCell id="LzTHK_fe2vo6rBPdGbPL-2" value="InteractiveSystem" style="swimlane;fontStyle=1;align=center;verticalAlign=top;childLayout=stackLayout;horizontal=1;startSize=26;horizontalStack=0;resizeParent=1;resizeParentMax=0;resizeLast=0;collapsible=1;marginBottom=0;whiteSpace=wrap;html=1;" parent="1" vertex="1">
          <mxGeometry x="-605" y="380" width="210" height="130" as="geometry">
            <mxRectangle x="-390" y="350" width="140" height="30" as="alternateBounds" />
          </mxGeometry>
        </mxCell>
        <mxCell id="LzTHK_fe2vo6rBPdGbPL-3" value="- manager : Manager&lt;div&gt;- scanner : Scanner&lt;/div&gt;" style="text;strokeColor=none;fillColor=none;align=left;verticalAlign=top;spacingLeft=4;spacingRight=4;overflow=hidden;rotatable=0;points=[[0,0.5],[1,0.5]];portConstraint=eastwest;whiteSpace=wrap;html=1;" parent="LzTHK_fe2vo6rBPdGbPL-2" vertex="1">
          <mxGeometry y="26" width="210" height="44" as="geometry" />
        </mxCell>
        <mxCell id="LzTHK_fe2vo6rBPdGbPL-4" value="" style="line;strokeWidth=1;fillColor=none;align=left;verticalAlign=middle;spacingTop=-1;spacingLeft=3;spacingRight=3;rotatable=0;labelPosition=right;points=[];portConstraint=eastwest;strokeColor=inherit;" parent="LzTHK_fe2vo6rBPdGbPL-2" vertex="1">
          <mxGeometry y="70" width="210" height="8" as="geometry" />
        </mxCell>
        <mxCell id="LzTHK_fe2vo6rBPdGbPL-5" value="+ run() : void&lt;div&gt;+ handleFilterTasks() : void&lt;/div&gt;&lt;div&gt;+ handleDisplayTasksByFilter() : void&lt;/div&gt;" style="text;strokeColor=none;fillColor=none;align=left;verticalAlign=top;spacingLeft=4;spacingRight=4;overflow=hidden;rotatable=0;points=[[0,0.5],[1,0.5]];portConstraint=eastwest;whiteSpace=wrap;html=1;" parent="LzTHK_fe2vo6rBPdGbPL-2" vertex="1">
          <mxGeometry y="78" width="210" height="52" as="geometry" />
        </mxCell>
        <mxCell id="tqXzGDMAnHT13MNCIwR6-1" value="&lt;span style=&quot;font-weight: normal;&quot;&gt;&amp;lt;&amp;lt;enumeration&amp;gt;&amp;gt;&lt;/span&gt;&lt;div&gt;Priority&lt;/div&gt;" style="swimlane;fontStyle=1;align=center;verticalAlign=top;childLayout=stackLayout;horizontal=1;startSize=40;horizontalStack=0;resizeParent=1;resizeParentMax=0;resizeLast=0;collapsible=1;marginBottom=0;whiteSpace=wrap;html=1;" vertex="1" parent="1">
          <mxGeometry x="-275" y="-117" width="120" height="94" as="geometry">
            <mxRectangle x="-270" y="-150" width="140" height="40" as="alternateBounds" />
          </mxGeometry>
        </mxCell>
        <mxCell id="tqXzGDMAnHT13MNCIwR6-2" value="LOW&lt;div&gt;MEDIUM&lt;/div&gt;&lt;div&gt;HIGH&lt;/div&gt;" style="text;strokeColor=none;fillColor=none;align=left;verticalAlign=top;spacingLeft=4;spacingRight=4;overflow=hidden;rotatable=0;points=[[0,0.5],[1,0.5]];portConstraint=eastwest;whiteSpace=wrap;html=1;" vertex="1" parent="tqXzGDMAnHT13MNCIwR6-1">
          <mxGeometry y="40" width="120" height="54" as="geometry" />
        </mxCell>
        <mxCell id="tqXzGDMAnHT13MNCIwR6-20" style="rounded=0;orthogonalLoop=1;jettySize=auto;html=1;exitX=0;exitY=0.5;exitDx=0;exitDy=0;edgeStyle=elbowEdgeStyle;entryX=1;entryY=0.5;entryDx=0;entryDy=0;endArrow=block;endFill=0;endSize=12;startSize=12;" edge="1" parent="1" source="2sqMpwf60o3uSlJGsnfw-6" target="2sqMpwf60o3uSlJGsnfw-2">
          <mxGeometry relative="1" as="geometry">
            <mxPoint x="-74" y="157" as="targetPoint" />
          </mxGeometry>
        </mxCell>
        <mxCell id="tqXzGDMAnHT13MNCIwR6-22" style="edgeStyle=elbowEdgeStyle;rounded=0;orthogonalLoop=1;jettySize=auto;html=1;exitX=0;exitY=0.5;exitDx=0;exitDy=0;entryX=1;entryY=0.5;entryDx=0;entryDy=0;endSize=12;startSize=12;endArrow=block;endFill=0;" edge="1" parent="1" source="2sqMpwf60o3uSlJGsnfw-15" target="2sqMpwf60o3uSlJGsnfw-2">
          <mxGeometry relative="1" as="geometry" />
        </mxCell>
      </root>
    </mxGraphModel>
  </diagram>
</mxfile>
